<?xml version="1.0" standalone="no"?>
<!DOCTYPE svg PUBLIC "-//W3C//DTD SVG 20010904//EN"
 "http://www.w3.org/TR/2001/REC-SVG-20010904/DTD/svg10.dtd">
<svg version="1.0" xmlns="http://www.w3.org/2000/svg"
 width="1024.000000pt" height="1024.000000pt" viewBox="0 0 1024.000000 1024.000000"
 preserveAspectRatio="xMidYMid meet">
<metadata>
Created by potrace 1.11, written by Peter Selinger 2001-2013
</metadata>
<g transform="translate(0.000000,1024.000000) scale(0.100000,-0.100000)"
fill="#000000" stroke="none">
<path d="M4859 10236 c-2 -2 -35 -7 -74 -11 -99 -9 -277 -35 -335 -49 -14 -3
-37 -8 -52 -11 -67 -12 -85 -16 -116 -26 -18 -6 -39 -12 -45 -13 -48 -9 -84
-20 -94 -28 -7 -6 -13 -8 -13 -5 0 6 -152 -44 -260 -86 -147 -57 -324 -142
-465 -225 -125 -73 -265 -164 -288 -187 -9 -8 -18 -15 -22 -15 -6 0 -74 -51
-110 -83 -11 -10 -33 -28 -49 -40 -167 -128 -489 -471 -606 -647 -8 -13 -24
-35 -36 -49 -17 -22 -55 -80 -107 -165 -7 -11 -26 -43 -43 -70 -37 -61 -214
-424 -214 -439 0 -3 -5 -18 -12 -34 -6 -15 -12 -30 -13 -33 -1 -3 -5 -12 -8
-20 -18 -43 -88 -266 -107 -343 -20 -82 -24 -98 -34 -144 -2 -10 -7 -38 -11
-63 -9 -57 -13 -78 -20 -110 -6 -25 -11 -64 -20 -150 -2 -25 -7 -70 -11 -100
-12 -95 -11 -7094 1 -7075 5 9 33 52 62 96 28 43 48 79 45 79 -4 0 -2 4 3 8 6
4 26 32 45 62 19 30 37 57 40 60 4 3 10 12 13 20 4 8 15 27 25 41 9 15 35 55
56 90 22 35 44 66 48 67 4 2 8 10 8 18 0 8 5 14 12 14 6 0 8 3 5 7 -4 3 -1 13
7 22 7 9 78 117 156 241 147 232 226 355 295 464 22 34 60 93 84 131 24 39 58
93 76 120 18 28 52 82 77 120 24 39 71 112 104 162 84 133 93 146 101 163 4 8
11 20 16 25 8 9 188 291 236 370 10 17 53 83 95 148 42 66 76 123 76 128 0 5
3 9 8 9 4 0 27 34 51 75 24 41 50 80 57 86 8 6 14 17 14 23 0 7 7 21 15 31 16
20 241 369 260 403 9 17 164 262 172 271 1 2 47 -10 100 -27 108 -35 363 -103
363 -96 0 2 10 0 23 -5 12 -5 42 -11 67 -15 25 -3 54 -8 65 -10 31 -6 116 -18
155 -22 142 -14 198 -17 380 -17 202 -2 390 9 479 28 14 2 47 7 74 10 28 3 53
8 57 10 3 2 27 6 54 9 26 3 51 8 55 10 4 3 18 7 32 10 13 2 44 9 69 15 25 7
54 14 66 16 50 11 228 69 329 107 155 58 426 183 433 200 2 5 9 8 15 8 15 1
186 105 293 179 121 82 254 188 369 293 124 114 321 325 375 402 8 11 20 27
27 34 18 19 141 193 188 267 60 95 165 285 165 300 0 7 3 15 8 17 12 5 87 171
127 283 10 28 22 55 25 60 6 8 15 38 25 75 0 3 11 35 23 71 12 36 24 74 27 85
2 10 13 53 24 94 11 41 23 89 26 105 3 17 8 41 11 55 3 14 7 32 9 40 3 8 7 33
10 55 3 22 7 51 10 65 41 205 51 644 21 900 -3 19 -7 58 -10 85 -6 54 -9 70
-32 190 -23 122 -25 128 -29 135 -2 4 -7 22 -10 41 -11 63 -66 243 -117 379
-52 142 -190 435 -239 508 -16 24 -29 45 -29 48 0 6 -170 263 -189 286 -6 7
-43 54 -83 103 -40 50 -88 108 -107 130 -49 54 -271 275 -302 300 -13 11 -51
43 -84 71 -124 105 -274 210 -440 309 -112 67 -343 183 -420 210 -27 10 -54
22 -60 26 -13 9 -303 107 -330 112 -11 1 -25 6 -31 9 -6 4 -26 10 -45 13 -19
3 -52 10 -74 16 -22 5 -51 12 -65 14 -14 3 -45 10 -70 15 -67 15 -159 29 -310
47 -43 6 -596 13 -601 9z m526 -989 c52 -7 142 -21 195 -32 14 -2 36 -7 50 -9
105 -20 334 -89 358 -108 6 -6 12 -7 12 -3 0 4 7 2 15 -5 8 -7 15 -9 15 -5 0
4 6 3 13 -2 6 -6 29 -16 50 -22 20 -7 37 -17 37 -23 0 -6 3 -9 6 -5 9 9 303
-148 324 -172 8 -9 69 -51 74 -51 3 0 14 -6 23 -14 10 -8 54 -43 98 -78 98
-77 288 -266 372 -369 112 -138 219 -307 297 -469 25 -52 52 -106 58 -119 7
-13 56 -48 108 -79 52 -30 109 -62 125 -72 17 -10 57 -33 90 -52 33 -19 78
-46 100 -59 57 -35 116 -67 148 -81 15 -7 27 -16 27 -20 0 -4 5 -8 11 -8 6 0
29 -13 52 -28 23 -16 51 -32 61 -36 11 -4 16 -10 10 -15 -5 -5 -103 -63 -219
-130 -115 -66 -215 -125 -222 -131 -7 -5 -16 -10 -20 -10 -15 0 -93 -56 -87
-63 7 -7 8 -318 0 -372 -3 -22 -8 -69 -12 -105 -3 -36 -7 -67 -9 -70 -2 -3 -6
-26 -10 -50 -7 -53 -64 -290 -73 -305 -4 -5 -8 -18 -9 -29 -2 -10 -17 -52 -33
-93 -17 -41 -30 -81 -30 -89 0 -8 -4 -14 -10 -14 -5 0 -10 -7 -10 -16 0 -48
-174 -346 -293 -503 -161 -212 -378 -421 -557 -537 -25 -16 -47 -32 -50 -35
-3 -3 -43 -28 -90 -55 -47 -27 -86 -52 -88 -56 -2 -5 -8 -8 -13 -8 -5 0 -46
-18 -90 -40 -45 -22 -87 -40 -95 -40 -8 0 -14 -5 -14 -12 0 -6 -3 -8 -6 -5 -4
4 -19 0 -33 -8 -33 -18 -261 -96 -261 -89 0 3 -6 2 -12 -3 -7 -4 -17 -8 -23
-9 -5 -1 -21 -5 -35 -8 -213 -50 -360 -68 -580 -69 -216 -1 -339 12 -549 57
-140 30 -350 101 -475 160 -42 20 -79 37 -83 38 -5 1 -57 30 -117 65 -424 247
-747 584 -968 1013 -61 118 -143 313 -152 362 -2 13 -9 34 -15 48 -11 26 -50
176 -57 220 -2 14 -8 52 -14 85 -25 152 -33 258 -33 405 0 109 10 268 18 293
2 7 6 41 10 76 3 36 8 68 10 72 3 4 7 22 9 40 15 103 99 371 156 496 11 24 20
47 20 53 0 5 5 10 10 10 6 0 10 7 10 16 0 14 26 65 89 174 57 99 156 241 236
340 67 83 345 347 394 374 9 5 21 14 27 20 25 26 192 136 204 136 5 0 15 6 22
13 46 45 396 196 563 244 49 14 229 54 265 59 25 3 54 8 65 10 11 3 54 7 95
10 41 4 77 8 79 10 4 4 393 -4 436 -9z"/>
</g>
</svg>
