<?xml version="1.0" encoding="utf-8"?>
<!-- Generator: Adobe Illustrator 19.0.0, SVG Export Plug-In . SVG Version: 6.00 Build 0)  -->
<svg version="1.1" id="Layer_1" xmlns="http://www.w3.org/2000/svg" xmlns:xlink="http://www.w3.org/1999/xlink" x="0px" y="0px"
	 width="36px" height="36px" viewBox="0 0 36 36" style="enable-background:new 0 0 36 36;" xml:space="preserve">
<g id="XMLID_1_">
	<path id="XMLID_28_" style="fill:#FFFFFF;" d="M29.8,13.3c-0.1-0.5-0.3-0.9-0.6-1.3c-0.1-0.1-0.3-0.3-0.4-0.4
		c-0.4-0.2-0.8-0.4-1.3-0.4c-0.2,0-0.4,0-0.6,0.1c-0.4,0.1-0.8,0.3-1.1,0.6l0,0c-0.4,0.4-1,0.7-1.7,0.7c0,0,0,0,0,0
		c-0.2,0-0.4,0-0.5-0.1c0,0-0.1,0-0.1,0c-0.1,0-0.2-0.1-0.4-0.1l-3.8-1.4L7.9,7l-2-0.7c0.6,1.1,1.3,2.1,2.1,3c1.8,1.9,4.1,3.4,6.7,4
		c-1.1,0.3-2.3,0.4-3.5,0.4c-0.6,0-1.3,0-1.9-0.1c-0.4-0.1-0.8-0.1-1.2-0.2c0.6,0.6,1.3,1.1,1.9,1.5c2.2,1.4,4.8,2.3,7.6,2.3
		c0.1,0,0.2,0,0.3,0c-1.5,0.5-3.1,0.8-4.7,0.8c-0.1,0-0.2,0-0.3,0c2,1.7,4.5,2.8,7.3,3.1c0,0,0,0,0,0c0,0,0,0,0,0l-2.6,11L24,21
		l2.9-5c0,0,0,0,0,0c0.5-1,1.6-1.8,2.9-1.8v0H30l1.3,0L29.8,13.3z M29.9,13.6L29.9,13.6L29.9,13.6C29.9,13.6,29.9,13.6,29.9,13.6z"
		/>
</g>
</svg>
