<?xml version="1.0" encoding="utf-8"?>
<!-- Generator: Adobe Illustrator 19.0.0, SVG Export Plug-In . SVG Version: 6.00 Build 0)  -->
<svg version="1.1" id="Layer_1" xmlns="http://www.w3.org/2000/svg" xmlns:xlink="http://www.w3.org/1999/xlink" x="0px" y="0px"
	 width="356px" height="512px" viewBox="0 0 356 512" style="enable-background:new 0 0 356 512;" xml:space="preserve">
<path id="XMLID_32_" style="fill:#6c5ce7;" d="M178-0.1C83.3-0.1,6.2,76.9,6.2,171.6c0,0,0,0,0,0.1v340.4L120,333.3
	c18.1,6.5,37.7,10.1,58,10.1c94.7,0,171.8-77.1,171.8-171.8S272.7-0.1,178-0.1z M178,294.3c-67.7,0-122.7-55-122.7-122.7
	S110.3,49,178,49c51.1,0,95.1,31.5,113.5,76l36.8,21.3l-28,16.2c0.2,3,0.4,6.1,0.4,9.2C300.7,239.3,245.7,294.3,178,294.3z"/>
</svg>
